# xmcd
#
# Track frame offsets: 
#        150
#        26198
#        45173
#        64373
#        87901
#        109404
#        130089
#        151989
#        173507
#        198632
#        213152
#        220622
#        238922
#
# Disc length: 3474 seconds
#
# Revision: 0
# Processed by: cddbd v1.5.2PL0 Copyright (c) Steve Scherf et al.
# Submitted via: ExactAudioCopy v1.0b4
#
DISCID=b30d900d
DTITLE=Gregor Hilden - In Phase
DYEAR=2015
DGENRE=Blues
TTITLE0=Mr. Magic
TTITLE1=In Phase
TTITLE2=On Flow
TTITLE3=Rock - Flow
TTITLE4=Desert Song
TTITLE5=Springtime
TTITLE6=Blues From The Outer Side
TTITLE7=Chitlins Con Carne
TTITLE8=Naylor`s Blues
TTITLE9=Greg`s Funk
TTITLE10='63'
TTITLE11=Fleetwood Mac
TTITLE12=Farewell Blues
EXTD=
EXTT0=
EXTT1=
EXTT2=
EXTT3=
EXTT4=
EXTT5=
EXTT6=
EXTT7=
EXTT8=
EXTT9=
EXTT10=
EXTT11=
EXTT12=
PLAYORDER=
